<?xml version="1.0" encoding="UTF-8" standalone="no"?>
<svg
   version="1.0"
   width="637.000000pt"
   height="637.000000pt"
   viewBox="0 0 637.000000 637.000000"
   preserveAspectRatio="xMidYMid meet"
   id="svg8"
   sodipodi:docname="ardiesan.svg"
   inkscape:version="1.2.1 (9c6d41e, 2022-07-14)"
   xmlns:inkscape="http://www.inkscape.org/namespaces/inkscape"
   xmlns:sodipodi="http://sodipodi.sourceforge.net/DTD/sodipodi-0.dtd"
   xmlns="http://www.w3.org/2000/svg"
   xmlns:svg="http://www.w3.org/2000/svg">
  <defs
     id="defs12" />
  <sodipodi:namedview
     id="namedview10"
     pagecolor="#ffffff"
     bordercolor="#000000"
     borderopacity="0.25"
     inkscape:showpageshadow="2"
     inkscape:pageopacity="0.0"
     inkscape:pagecheckerboard="0"
     inkscape:deskcolor="#d1d1d1"
     inkscape:document-units="pt"
     showgrid="false"
     inkscape:zoom="0.27786499"
     inkscape:cx="424.66667"
     inkscape:cy="428.26554"
     inkscape:window-width="1309"
     inkscape:window-height="824"
     inkscape:window-x="0"
     inkscape:window-y="707"
     inkscape:window-maximized="0"
     inkscape:current-layer="svg8" />
  <g
     transform="translate(0.000000,637.000000) scale(0.100000,-0.100000)"
     fill="#FFF"
     stroke="none"
     id="g6"
     style="fill:#000000">
    <path
       d="M2980 5445 c0 -3 30 -67 66 -143 560 -1160 1631 -3448 1620 -3459 -3 -3 -328 -8 -721 -11 -393 -3 -715 -8 -715 -12 0 -4 23 -56 51 -116 28 -60 71 -152 95 -204 24 -52 50 -106 58 -120 l15 -25 993 -3 c546 -1 1003 0 1016 3 39 10 44 -4 -203 525 -371 796 -966 2077 -1125 2425 -73 160 -170 372 -216 472 -46 99 -84 186 -84 192 0 8 139 11 475 11 346 0 475 3 475 11 0 6 -13 37 -29 68 -15 31 -32 67 -36 81 -4 14 -39 89 -77 168 l-69 142 -794 0 c-437 0 -795 -2 -795 -5z"
       id="path2"
       style="fill:#000000" />
    <path
       d="M2594 5288 c-26 -51 -82 -167 -124 -258 -43 -91 -133 -282 -200 -425 -67 -143 -185 -395 -262 -560 -78 -165 -179 -381 -225 -480 -47 -99 -147 -313 -223 -475 -76 -162 -161 -344 -190 -405 -88 -185 -256 -546 -339 -728 -43 -94 -122 -261 -176 -371 -53 -109 -94 -204 -91 -211 2 -7 37 -14 88 -18 125 -10 2138 -8 2138 2 0 4 -17 46 -39 92 -92 199 -133 287 -154 329 l-22 45 -632 3 c-348 1 -633 5 -633 8 0 6 217 468 823 1759 174 368 320 671 325 673 5 1 25 -33 45 -77 20 -44 144 -311 275 -593 131 -282 337 -726 457 -985 l219 -473 240 0 c133 0 251 3 263 6 20 6 21 8 8 42 -11 33 -180 392 -687 1462 -77 162 -257 545 -400 850 -350 746 -415 880 -427 880 -6 0 -32 -42 -57 -92z"
       id="path4"
       style="fill:#000000" />
  </g>
</svg>
